<svg xmlns="http://www.w3.org/2000/svg" width="512" height="512" viewBox="0 0 512 512">
  <defs>
    <filter id="ds" x="-30%" y="-30%" width="160%" height="160%">
      <feDropShadow dx="0" dy="18" stdDeviation="14" flood-color="#0f0f10" flood-opacity="0.22"/>
      <feDropShadow dx="0" dy="10" stdDeviation="10" flood-color="#d71921" flood-opacity="0.18"/>
    </filter>
    <filter id="soft" x="-30%" y="-30%" width="160%" height="160%">
      <feDropShadow dx="0" dy="8" stdDeviation="10" flood-color="#0f0f10" flood-opacity="0.12"/>
    </filter>
  </defs>

  <!-- Tech rings -->
  <g fill="none" stroke-linecap="round" stroke-linejoin="round">
    <circle cx="256" cy="256" r="214" stroke="#0f0f10" stroke-opacity="0.20" stroke-width="10" stroke-dasharray="12 16"/>
    <circle cx="256" cy="256" r="190" stroke="#d71921" stroke-opacity="0.78" stroke-width="12" stroke-dasharray="4 22"/>
    <circle cx="256" cy="256" r="168" stroke="#0f0f10" stroke-opacity="0.12" stroke-width="8" stroke-dasharray="2 18"/>
  </g>

  <!-- Stylized R -->
  <g filter="url(#ds)">
    <path d="M168 408V126h176c60 0 104 40 104 98 0 54-34 88-78 97l86 99"
          fill="none" stroke="#d71921" stroke-width="22" stroke-linecap="round" stroke-linejoin="round" opacity="0.86"/>
    <path d="M164 430c-12.15 0-22-9.85-22-22V126c0-12.15 9.85-22 22-22h180c73 0 124 48 124 120
             0 56.4-35.4 96.1-84.4 112.9l84.3 96.7c8 9.2 7 23.1-2.1 31.1-9.2 8-23.1 7-31.1-2.1l-105.4-121
             c-12.2-14  -1.9-35.9 16.6-37.3 49.5-3.8 75.4-33.6 75.4-78.3 0-44.9-33.6-73.2-81.9-73.2H186v254
             c0 12.15-9.85 22-22 22z"
          fill="#0f0f10" filter="url(#soft)"/>
  </g>
</svg>
